<?xml version="1.0" encoding="utf-8"?>
<!-- Generator: Adobe Illustrator 27.6.1, SVG Export Plug-In . SVG Version: 6.00 Build 0)  -->
<svg version="1.1" id="Capa_1" xmlns="http://www.w3.org/2000/svg" xmlns:xlink="http://www.w3.org/1999/xlink" x="0px" y="0px"
	 viewBox="0 0 254.2 218.3" fill="currentColor" style="color:#7E22CE" xml:space="preserve">
<g>
	<path d="M13.8,3.2C11.6-0.3,6.6-0.9,3.2,1.3C0.4,3.5-0.6,6.6,0.4,9.7v201c0,4.1,3.4,7.5,7.5,7.5c4.1,0,7.5-3.4,7.5-7.5V31.3
		l131.5,182.9c0.3,0.6,0.9,0.9,1.3,1.3c1.6,1.9,3.4,2.8,6,2.8c4.4,0,7.8-3.4,7.8-7.5l-15.3-23.5L13.8,3.2z"/>
	<path d="M252.9,3.8c-0.6-0.9-1.3-1.6-2.2-2.5c-3.4-2.2-8.5-1.6-10.6,1.9l-77.7,108l-78-108C82-0.3,77.3-0.9,73.8,1.3
		c-0.3,0.3-0.6,0.3-0.6,0.6c-1.9,1.3-3.1,3.4-3.1,5.9l15.3,22.9l70.1,97.1c1.6,2.5,3.8,3.4,6.6,3.4h0.6c2.2,0,4.7-0.9,6.3-3.4
		l70.1-97.4v113.3v57.8v9.2c0,4.1,3.4,7.5,7.5,7.5c4.1,0,7.5-3.4,7.5-7.5v-9.2v-57.8V7.9C254.2,6.6,253.5,5,252.9,3.8z"/>
</g>
</svg>
