<!DOCTYPE svg PUBLIC "-//W3C//DTD SVG 1.1//EN" "http://www.w3.org/Graphics/SVG/1.1/DTD/svg11.dtd">
<!-- Uploaded to: SVG Repo, www.svgrepo.com, Transformed by: SVG Repo Mixer Tools -->
<svg version="1.1" id="Layer_1" xmlns="http://www.w3.org/2000/svg" xmlns:xlink="http://www.w3.org/1999/xlink" viewBox="-96.82 -96.82 633.74 633.74" xml:space="preserve" width="208px" height="208px" fill="#000000" transform="rotate(0)" stroke="#000000" stroke-width="0.00440102">
<g id="SVGRepo_bgCarrier" stroke-width="0" transform="translate(0,0), scale(1)">
<rect x="-96.82" y="-96.82" width="633.74" height="633.74" rx="316.87" fill="#7ed0ec" strokewidth="0"/>
</g>
<g id="SVGRepo_tracerCarrier" stroke-linecap="round" stroke-linejoin="round" stroke="#CCCCCC" stroke-width="2.640612"/>
<g id="SVGRepo_iconCarrier"> <g id="XMLID_1398_"> <path id="XMLID_1301_" style="fill:#1A6FB0;" d="M395.67,411.835l-7.026-22.833c-16.004-52.007-69.341-94.231-121.512-109.691 c0,0-95.042-1.27-100.602,0.441l-0.022,0.007c-50.167,15.436-98.674,56.012-114.109,106.18l-7.968,25.897 c-2.038,6.625-0.811,13.824,3.307,19.4s10.638,8.866,17.57,8.866h309.487c6.932,0,13.452-3.29,17.57-8.866 C396.481,425.66,397.708,418.46,395.67,411.835z"/> <path id="XMLID_1303_" style="fill:#165C92;" d="M395.67,411.835l-7.026-22.833c-16.004-52.007-66.688-93.837-118.859-109.297l0,0 c-5.627-1.668-49.734,0.051-49.734,0.051v160.345h154.743c6.932,0,13.452-3.29,17.57-8.866 C396.481,425.66,397.708,418.46,395.67,411.835z"/> <path id="XMLID_1295_" style="fill:#F2A64C;" d="M218.211,327.864L218.211,327.864c-28.549,0-51.693-23.144-51.693-51.693v-48.468 h103.386v48.468C269.904,304.72,246.761,327.864,218.211,327.864z"/> <path id="XMLID_1112_" style="fill:#E29542;" d="M166.518,264.104c25.347,17.456,52.67,18.693,52.67,18.693 s26.193-2.598,50.716-17.201v-37.893H166.518V264.104z"/> <path id="XMLID_1300_" style="fill:#FFC477;" d="M105.533,176.876c3.783,17.833,15.912,30.847,28.732,32.102 c24.485,54.76,84.924,57.495,84.924,57.495l0,0c0,0,66.199-6.556,86.646-57.494c12.82-1.254,24.949-14.268,28.726-32.102 c3.759-17.674-1.935-34.361-12.967-40.828l3.094-16.177c5.651-29.549-2.176-60.079-21.347-83.264 C284.168,13.423,255.653,0,225.568,0h-11.036c-30.085,0-58.6,13.423-77.771,36.607c-19.171,23.185-26.998,53.715-21.347,83.264 l3.094,16.18C107.471,142.52,101.788,159.204,105.533,176.876z"/> <path id="XMLID_1302_" style="fill:#FFB655;" d="M219.189,266.473c0,0,64.062-4.915,86.646-57.494 c12.82-1.254,24.949-14.268,28.726-32.102c3.759-17.674-1.935-34.361-12.967-40.828l3.094-16.177 c5.651-29.549-2.176-60.079-21.347-83.264C284.168,13.423,255.653,0,225.568,0h-5.518L219.189,266.473L219.189,266.473z"/> <rect id="XMLID_1368_" x="272.586" y="392.951" style="fill:#12517C;" width="63.13" height="20.699"/> <rect id="XMLID_1369_" x="269.904" y="388.874" style="fill:#E0E0E2;" width="63.13" height="20.699"/> </g> </g>
</svg>