<!DOCTYPE svg PUBLIC "-//W3C//DTD SVG 1.1//EN" "http://www.w3.org/Graphics/SVG/1.1/DTD/svg11.dtd">
<!-- Uploaded to: SVG Repo, www.svgrepo.com, Transformed by: SVG Repo Mixer Tools -->
<svg height="800px" width="800px" version="1.1" id="Layer_1" xmlns="http://www.w3.org/2000/svg" xmlns:xlink="http://www.w3.org/1999/xlink" viewBox="0 0 512 512" xml:space="preserve" fill="#000000">
<g id="SVGRepo_bgCarrier" stroke-width="0"/>
<g id="SVGRepo_tracerCarrier" stroke-linecap="round" stroke-linejoin="round"/>
<g id="SVGRepo_iconCarrier"> <circle style="fill:#6E76E5;" cx="256" cy="256" r="256"/> <path style="fill:#515BE0;" d="M498.433,338.439L342.044,182.05l-17.086,10.735l-91.757-91.757l-19.149,37.747l-37.05,18.453 l78.924,78.924l-18.061,25.545L111.192,389.329l121.615,121.615C240.447,511.629,248.18,512,256,512 C368.542,512,464.119,439.377,498.433,338.439z"/> <path style="fill:#90DFAA;" d="M208.798,352.068c0-53.498,43.368-96.866,96.866-96.866s96.866,43.368,96.866,96.866H208.798z"/> <path style="fill:#2C9984;" d="M305.666,255.202c-0.083,0-0.164,0.005-0.247,0.007v96.861h97.113 C402.532,298.57,359.164,255.202,305.666,255.202z"/> <path style="fill:#00EED1;" d="M111.192,389.329c0-53.498,43.368-96.866,96.866-96.866s96.866,43.368,96.866,96.866H111.192z"/> <path style="fill:#04b9a4;" d="M208.06,292.461c-0.014,0-0.028,0.002-0.04,0.002v96.866h96.908 C304.926,335.831,261.556,292.461,208.06,292.461z"/> <circle style="fill:#FED8B2;" cx="305.666" cy="223.746" r="55.355"/> <path style="fill:#F4C69D;" d="M305.666,168.398c-0.083,0-0.164,0.005-0.247,0.007v110.692c0.083,0,0.164,0.007,0.247,0.007 c30.57,0,55.353-24.781,55.353-55.353C361.019,193.181,336.236,168.398,305.666,168.398z"/> <circle style="fill:#FFFFFF;" cx="208.058" cy="261.017" r="55.355"/> <path style="fill:#F4E3C3;" d="M208.06,205.658c-0.014,0-0.028,0.002-0.04,0.002v110.702c0.014,0,0.028,0,0.04,0 c30.57,0,55.353-24.781,55.353-55.353C263.411,230.441,238.63,205.658,208.06,205.658z"/> <polygon style="fill:#00EED1;" points="264.256,132.084 233.2,132.084 233.2,101.028 208.06,101.028 208.06,132.086 177.002,132.086 177.002,157.227 208.06,157.225 208.06,188.282 233.2,188.282 233.2,157.225 264.256,157.225 "/> <polygon style="fill:#04b9a4;" points="233.2,132.084 233.2,101.028 220.086,101.028 220.086,188.282 233.2,188.282 233.2,157.225 264.256,157.225 264.256,132.084 "/> </g>
</svg>